<?xml version="1.0" encoding="UTF-8"?>
<!-- Uploaded to: SVG Repo, www.svgrepo.com, Generator: SVG Repo Mixer Tools -->
<svg fill="#000000" width="800px" height="800px" version="1.1" viewBox="144 144 512 512" xmlns="http://www.w3.org/2000/svg">
 <path d="m422.67 209.56c-26.703-26.199-86.656 12.09-135.02 57.938-0.50391 0.50391-1.0078 0.50391-1.5117 1.0078-0.50391 0.50391-0.50391 0.50391-0.50391 1.0078l-0.50391 0.50391c-2.0156 3.0234-2.0156 7.5586 1.0078 10.078l10.078 10.078-6.5508 6.5508-10.078-10.078c-2.5195-2.5195-7.0547-3.0234-10.078-1.0078l-0.50391 0.50391c-0.50391 0-0.50391 0.50391-1.0078 0.50391-0.50391 0.50391-0.50391 1.0078-1.0078 1.5117-45.34 47.859-83.629 107.81-57.43 134.52 0.50391 0.50391 0.50391 0.50391 1.0078 1.0078 6.0469 6.0469 17.633 12.09 38.289 7.5586l56.426 7.5586c2.0156 0.50391 4.5352 1.0078 7.5586 2.5195 3.0234 1.5117 7.0547 3.0234 11.586 4.0312 24.688 5.543 65.496-32.242 77.082-44.336 11.586-12.09 49.879-52.395 44.336-77.082-1.0078-4.5352-3.0234-8.5664-4.0312-11.586-1.5117-3.0234-2.5195-5.0391-2.5195-7.5586l-8.5625-55.93c4.5352-20.656-1.5117-32.242-7.5586-38.289 0-0.50391-0.5-0.50391-0.5-1.0078zm-122.93 99.25 9.0703-9.0703 50.883 38.293 4.0312 9.5742c0 0.50391 0.50391 1.0078 1.0078 1.5117l0.50391 1.0078v1.0078l-14.105 14.105c-0.50391 0.50391-1.0078 0.50391-1.0078 0l-1.0117-0.50781c-0.50391-0.50391-1.0078-0.50391-1.5117-1.0078l-9.5703-4.0273zm-71.543 95.219c-2.0156-2.0156-2.0156-11.586 8.0625-30.73 9.5742-18.137 25.191-39.801 45.344-61.465l36.777 48.871c-46.855 40.305-83.129 49.875-90.184 43.324zm184.39-95.723c1.0078 6.0469 3.0234 11.082 4.5352 15.113 1.0078 2.5195 2.0156 4.5352 2.5195 6.5508 0 5.543-10.578 26.199-36.777 52.898-26.199 26.703-47.359 37.281-52.898 36.777-2.0156-0.50391-4.0312-1.5117-6.5508-2.5195-4.0312-2.0156-8.5664-4.0312-15.113-4.5352l-13.602-2.0156c15.617-9.5742 30.73-21.664 45.344-34.258l1.0078 0.50391c6.0469 4.5352 14.105 3.5273 19.648-1.5117l14.105-14.105c5.0391-5.0391 6.0469-13.602 1.5117-19.648l-0.50391-1.5117c13.098-14.609 25.191-30.23 34.258-45.344zm-52.898 10.078-48.871-36.777c21.664-20.152 43.328-36.273 61.465-45.344 19.145-10.078 29.223-9.5742 30.73-8.0625 7.5586 7.0547-2.0117 43.328-43.324 90.184zm111.84 35.266c18.137 18.137-10.078 53.402-37.281 80.609-27.207 27.207-62.473 54.914-80.609 37.281-5.0391-5.0391-5.0391-13.602 0-18.641 4.0312-4.0312 10.578-5.0391 15.617-2.5195 5.543-1.5117 22.672-11.082 46.352-34.762 23.68-23.68 33.25-40.305 34.762-46.352-2.5195-5.0391-2.0156-11.082 2.5195-15.617 5.0391-5.0391 13.602-5.0391 18.641 0zm33.754 33.754c18.137 18.137-10.078 53.402-37.281 80.609-27.207 27.207-62.473 54.914-80.609 37.281-5.0391-5.0391-5.0391-13.602 0-18.641 4.0312-4.0312 10.578-5.0391 15.617-2.5195 5.543-1.5117 22.672-11.082 46.352-34.762 23.68-23.68 33.25-40.305 34.762-46.352-2.5195-5.0391-2.0156-11.082 2.5195-15.617 5.0391-5.0391 13.605-5.0391 18.641 0zm33.758 34.262c18.137 18.137-10.078 53.402-37.281 80.609-26.703 26.703-62.473 54.914-80.609 37.281-5.0391-5.0391-5.0391-13.602 0-18.641 4.0312-4.0312 10.578-5.0391 15.617-2.5195 5.543-1.5117 22.672-11.082 46.352-34.762 23.68-23.68 33.25-40.305 34.762-46.352-2.5195-5.0391-2.0156-11.082 2.5195-15.617 5.0352-5.543 13.602-5.543 18.641 0zm21.16 52.395c17.633 17.633-17.633 54.41-24.688 61.465-7.0547 7.0547-43.832 42.32-61.465 24.688-5.0391-5.0391-5.0391-13.602 0-18.641 3.5273-3.5273 9.0703-4.5352 13.602-3.0234 4.5352-1.5117 15.617-8.0625 29.223-21.664 13.602-13.602 20.152-25.191 21.664-29.223-1.5117-4.5352-0.50391-9.5742 3.0234-13.602 5.0352-5.543 13.098-5.543 18.641 0zm22.672 47.863c0.50391 1.5117 16.121 31.738 16.121 65.496 0 3.0234-1.0078 6.0469-3.5273 8.0625-2.0156 2.0156-5.0391 3.5273-8.0625 3.5273-33.754 0-64.488-15.617-65.496-16.121-3.5273-2.0156-6.0469-5.543-6.0469-9.5742s2.0156-8.0625 5.543-10.078c0 0 9.5742-6.0469 20.152-16.625 4.5352-4.5352 11.586-4.5352 16.121 0s4.5352 11.586 0 16.121c-2.5195 2.5195-5.0391 5.0391-7.5586 7.0547 7.0547 2.5195 16.121 4.5352 25.191 5.543-3.0234-23.176-12.594-42.824-12.594-43.328-3.0234-5.543-0.50391-12.594 5.0391-15.617 5.543-2.5234 12.094-0.003906 15.117 5.5391z"/>
</svg>